<?xml version="1.0" encoding="utf-8"?>
<!-- Generator: Adobe Illustrator 27.5.0, SVG Export Plug-In . SVG Version: 6.00 Build 0)  -->
<svg version="1.1" xmlns="http://www.w3.org/2000/svg" xmlns:xlink="http://www.w3.org/1999/xlink" x="0px" y="0px"
	 viewBox="0 0 841.89 1190.551" style="enable-background:new 0 0 841.89 1190.551;" xml:space="preserve">
<g id="PRINT_4">
	<rect x="-11.339" y="-11.339" style="fill:#F7EEE7;" width="864.567" height="1213.228"/>
	<rect x="-11.339" y="-11.339" style="fill:#F5F1F0;" width="864.567" height="569.764"/>
	<rect x="-11.378" y="1031.811" style="fill:#3D5E51;" width="864.567" height="170.079"/>
	<rect x="64.527" y="1119.506" style="fill:none;" width="159.438" height="31.033"/>
	<text transform="matrix(1 0 0 1 64.5273 1133.7067)" style="fill:#F7EEE7; font-family:'Montserrat-Bold'; font-size:20px;">+01 123 456 789</text>
	<g>
		<rect x="64.527" y="1092.312" style="fill:none;" width="159.438" height="31.033"/>
		<text transform="matrix(1 0 0 1 64.5273 1106.512)" style="fill:#5DA58F; font-family:'Montserrat-Bold'; font-size:20px;">Phone</text>
	</g>
	<rect x="281.355" y="1119.506" style="fill:none;" width="277.623" height="31.033"/>
	<text transform="matrix(1 0 0 1 281.3552 1133.7067)" style="fill:#F7EEE7; font-family:'Montserrat-Bold'; font-size:20px;">Nº Street Name, City XXXX</text>
	<g>
		<rect x="281.355" y="1092.312" style="fill:none;" width="277.623" height="31.033"/>
		<text transform="matrix(1 0 0 1 281.3552 1106.512)" style="fill:#5DA58F; font-family:'Montserrat-Bold'; font-size:20px;">address</text>
	</g>
	<rect x="616.369" y="1119.506" style="fill:none;" width="175.77" height="31.033"/>
	<text transform="matrix(1 0 0 1 616.3691 1133.7067)" style="fill:#F7EEE7; font-family:'Montserrat-Bold'; font-size:20px;">info@email.com</text>
	<g>
		<rect x="616.369" y="1092.312" style="fill:none;" width="175.77" height="31.033"/>
		<text transform="matrix(1 0 0 1 616.3691 1106.512)" style="fill:#5DA58F; font-family:'Montserrat-Bold'; font-size:20px;">email</text>
	</g>
	<g>
		<rect x="117.846" y="280.735" style="fill:none;" width="175.057" height="26.749"/>
		<text transform="matrix(1 0 0 1 190.4547 292.0935)" style="fill:#20493B; font-family:'Montserrat-Bold'; font-size:16px;">US $</text>
	</g>
	<g>
		<rect x="117.846" y="341.629" style="fill:none;" width="175.057" height="26.749"/>
		<text transform="matrix(1 0 0 1 174.3912 352.9873)" style="fill:#20493B; font-family:'Montserrat-Bold'; font-size:16px;">Expenses</text>
	</g>
	<g>
		<rect x="117.846" y="402.522" style="fill:none;" width="175.057" height="26.749"/>
		<text transform="matrix(1 0 0 1 187.2789 413.8811)" style="fill:#20493B; font-family:'Montserrat-Bold'; font-size:16px;">Profit</text>
	</g>
	<g>
		<rect x="117.846" y="463.416" style="fill:none;" width="175.057" height="26.749"/>
		<text transform="matrix(1 0 0 1 142.3278 474.7749)" style="fill:#20493B; font-family:'Montserrat-Bold'; font-size:16px;">Dividend per share</text>
	</g>
	<g>
		<rect x="335.859" y="280.735" style="fill:none;" width="175.057" height="26.749"/>
		<text transform="matrix(1 0 0 1 405.2999 292.0935)" style="fill:#20493B; font-family:'Montserrat-Bold'; font-size:16px;">FY’30</text>
	</g>
	<g>
		<rect x="335.859" y="341.629" style="fill:none;" width="175.057" height="26.749"/>
		<text transform="matrix(1 0 0 1 401.212 352.9873)" style="fill:#20493B; font-family:'Montserrat-Medium'; font-size:16px;">300.00</text>
	</g>
	<g>
		<rect x="335.859" y="402.522" style="fill:none;" width="175.057" height="26.749"/>
		<text transform="matrix(1 0 0 1 401.212 413.8811)" style="fill:#20493B; font-family:'Montserrat-Medium'; font-size:16px;">156.00</text>
	</g>
	<g>
		<rect x="335.859" y="463.416" style="fill:none;" width="175.057" height="26.749"/>
		<text transform="matrix(1 0 0 1 380.3804 474.7749)" style="fill:#20493B; font-family:'Montserrat-Medium'; font-size:16px;">$70.00/share</text>
	</g>
	<g>
		<rect x="547.872" y="280.735" style="fill:none;" width="175.057" height="26.749"/>
		<text transform="matrix(1 0 0 1 593.6806 292.0935)" style="fill:#20493B; font-family:'Montserrat-Bold'; font-size:16px;">YOY Change</text>
	</g>
	<g>
		<rect x="547.872" y="341.629" style="fill:none;" width="175.057" height="26.749"/>
		<text transform="matrix(1 0 0 1 620.8559 352.9873)" style="fill:#20493B; font-family:'Montserrat-Medium'; font-size:16px;">18%</text>
	</g>
	<g>
		<rect x="547.872" y="402.522" style="fill:none;" width="175.057" height="26.749"/>
		<text transform="matrix(1 0 0 1 616.7524 413.8811)" style="fill:#20493B; font-family:'Montserrat-Medium'; font-size:16px;">248%</text>
	</g>
	<g>
		<rect x="547.872" y="463.416" style="fill:none;" width="175.057" height="26.749"/>
		<text transform="matrix(1 0 0 1 623.0883 474.7749)" style="fill:#20493B; font-family:'Montserrat-Medium'; font-size:16px;">100</text>
	</g>
	<g>
		<rect x="100.14" y="603.437" style="fill:none;" width="609.702" height="27.346"/>
		<text transform="matrix(1 0 0 1 100.1396 626.8666)" style="fill:#3D5E51; font-family:'Federo-Regular'; font-size:33px;">Financial Targets</text>
	</g>
	<g>
		<rect x="100.14" y="657.725" style="fill:none;" width="641.912" height="342.821"/>
		<text transform="matrix(1 0 0 1 100.1396 669.084)"><tspan x="0" y="0" style="fill:#3D5E51; font-family:'Montserrat-Medium'; font-size:16px;">Pre-production - $ 2.000.000</tspan><tspan x="0" y="22" style="fill:#3D5E51; font-family:'Montserrat-Medium'; font-size:16px;">Production - $ 2.000.000</tspan><tspan x="0" y="44" style="fill:#3D5E51; font-family:'Montserrat-Medium'; font-size:16px;">Post-production - $ 2.000.000</tspan><tspan x="0" y="66" style="fill:#3D5E51; font-family:'Montserrat-Medium'; font-size:16px;">Total Budget - $ 2.000.000</tspan><tspan x="0" y="110" style="fill:#3D5E51; font-family:'Montserrat-Medium'; font-size:16px;">Upon approval of this proposal, we will begin the pre-production phase by scheduling a kickoff </tspan><tspan x="0" y="132" style="fill:#3D5E51; font-family:'Montserrat-Medium'; font-size:16px;">meeting to discuss the project timeline, gather any necessary assets, and finalize the script.</tspan><tspan x="0" y="154" style="fill:#3D5E51; font-family:'Montserrat-Medium'; font-size:16px;">From there, we will proceed with filming and post-production, keeping you informed and </tspan><tspan x="0" y="176" style="fill:#3D5E51; font-family:'Montserrat-Medium'; font-size:16px;">involved every step of the way.</tspan><tspan x="0" y="220" style="fill:#3D5E51; font-family:'Montserrat-Medium'; font-size:16px;">Thank you for considering [Your Company Name] for your product launch video production </tspan><tspan x="0" y="242" style="fill:#3D5E51; font-family:'Montserrat-Medium'; font-size:16px;">needs. We are confident that our expertise and creativity will help you achieve your goals and </tspan><tspan x="0" y="264" style="fill:#3D5E51; font-family:'Montserrat-Medium'; font-size:16px;">make a lasting impression on your audience. We look forward to the opportunity to work with </tspan><tspan x="0" y="286" style="fill:#3D5E51; font-family:'Montserrat-Medium'; font-size:16px;">you.</tspan></text>
	</g>
	<g>
		<rect x="100.14" y="160.251" style="fill:none;" width="647.781" height="60.187"/>
		<text transform="matrix(1 0 0 1 100.1396 171.6114)"><tspan x="0" y="0" style="fill:#3D5E51; font-family:'Montserrat-Medium'; font-size:16px;">During the pre-production phase, our team will work closely with you to conceptualize the video </tspan><tspan x="0" y="22" style="fill:#3D5E51; font-family:'Montserrat-Medium'; font-size:16px;">and develop a script that effectively communicates your message. </tspan></text>
	</g>
	<g>
		<rect x="100.685" y="95.973" style="fill:none;" width="609.702" height="27.346"/>
		<text transform="matrix(1 0 0 1 100.6849 119.4021)" style="fill:#3D5E51; font-family:'Federo-Regular'; font-size:33px;">Detailed Budget</text>
	</g>
	<rect x="101.661" y="254.017" style="fill:none;stroke:#20493B;stroke-miterlimit:10;" width="643.26" height="244.507"/>
	<line style="fill:none;stroke:#20493B;stroke-miterlimit:10;" x1="101.661" y1="437.397" x2="744.921" y2="437.397"/>
	<line style="fill:none;stroke:#20493B;stroke-miterlimit:10;" x1="101.661" y1="376.27" x2="744.921" y2="376.27"/>
	<line style="fill:none;stroke:#20493B;stroke-miterlimit:10;" x1="101.661" y1="315.144" x2="744.921" y2="315.144"/>
	<line style="fill:none;stroke:#20493B;stroke-miterlimit:10;" x1="530.501" y1="254.017" x2="530.501" y2="498.524"/>
	<line style="fill:none;stroke:#20493B;stroke-miterlimit:10;" x1="316.081" y1="254.017" x2="316.081" y2="498.524"/>
</g>
<g id="PRINT_3">
</g>
<g id="PRINT_2">
</g>
<g id="PRINT_1">
</g>
</svg>
